<svg xmlns="http://www.w3.org/2000/svg" viewBox="0 0 1200 760" font-family="'Pretendard','Segoe UI','Apple SD Gothic Neo',sans-serif">
  <defs>
    <linearGradient id="bgGlow3" x1="0" y1="0" x2="1" y2="1">
      <stop offset="0" stop-color="#1d4ed8" stop-opacity="0.22"/>
      <stop offset="0.55" stop-color="#0a0f1e" stop-opacity="0"/>
      <stop offset="1" stop-color="#22d3ee" stop-opacity="0.16"/>
    </linearGradient>
    <linearGradient id="barGrad" x1="0" y1="1" x2="0" y2="0">
      <stop offset="0" stop-color="#1d4ed8"/>
      <stop offset="1" stop-color="#3b82f6"/>
    </linearGradient>
    <linearGradient id="areaGrad" x1="0" y1="0" x2="0" y2="1">
      <stop offset="0" stop-color="#22d3ee" stop-opacity="0.35"/>
      <stop offset="1" stop-color="#22d3ee" stop-opacity="0"/>
    </linearGradient>
    <filter id="shadow3" x="-20%" y="-20%" width="140%" height="140%">
      <feDropShadow dx="0" dy="10" stdDeviation="24" flood-color="#000000" flood-opacity="0.5"/>
    </filter>
  </defs>

  <rect width="1200" height="760" fill="#0a0f1e"/>
  <rect width="1200" height="760" fill="url(#bgGlow3)"/>

  <g filter="url(#shadow3)">
    <rect x="60" y="40" width="1080" height="680" rx="14" fill="#111a2e" stroke="#233252"/>
  </g>
  <rect x="60" y="40" width="1080" height="52" rx="14" fill="#16213b"/>
  <rect x="60" y="78" width="1080" height="14" fill="#16213b"/>
  <circle cx="92" cy="66" r="6" fill="#ef4444"/>
  <circle cx="114" cy="66" r="6" fill="#f59e0b"/>
  <circle cx="136" cy="66" r="6" fill="#22c55e"/>
  <rect x="170" y="52" width="560" height="28" rx="14" fill="#0d1526"/>
  <text x="192" y="71" fill="#64748b" font-size="13">🔒  goodautosystems.com/workspace/reports</text>

  <text x="100" y="140" fill="#e2e8f0" font-size="20" font-weight="700">경영 보고서 자동 생성</text>
  <text x="100" y="164" fill="#64748b" font-size="13">흩어진 실적 데이터를 모아 매주 월요일 아침 보고서 초안을 자동으로 만듭니다</text>

  <!-- 생성 완료 토스트 -->
  <rect x="820" y="116" width="280" height="52" rx="11" fill="#0d1526" stroke="#22c55e"/>
  <circle cx="848" cy="142" r="10" fill="#22c55e" opacity="0.2"/>
  <text x="848" y="147" text-anchor="middle" fill="#22c55e" font-size="12">✓</text>
  <text x="868" y="137" fill="#e2e8f0" font-size="13" font-weight="600">2026년 8월 2주차 보고서.pdf</text>
  <text x="868" y="157" fill="#64748b" font-size="11">생성 완료 · 팀 채널로 전송됨</text>

  <!-- 차트 카드 -->
  <rect x="100" y="192" width="672" height="360" rx="12" fill="#0d1526" stroke="#233252"/>
  <text x="124" y="226" fill="#e2e8f0" font-size="15" font-weight="700">주간 매출 및 처리 건수</text>
  <rect x="560" y="210" width="88" height="24" rx="12" fill="#16213b"/>
  <text x="604" y="226" text-anchor="middle" fill="#94a3b8" font-size="11">최근 8주</text>
  <rect x="656" y="210" width="88" height="24" rx="12" fill="#3b82f6" opacity="0.25"/>
  <text x="700" y="226" text-anchor="middle" fill="#93c5fd" font-size="11">자동 갱신</text>

  <!-- 그리드 -->
  <line x1="136" y1="300" x2="740" y2="300" stroke="#1e293b"/>
  <line x1="136" y1="360" x2="740" y2="360" stroke="#1e293b"/>
  <line x1="136" y1="420" x2="740" y2="420" stroke="#1e293b"/>
  <line x1="136" y1="480" x2="740" y2="480" stroke="#1e293b"/>

  <!-- 바 차트 -->
  <rect x="160" y="420" width="40" height="60" rx="5" fill="url(#barGrad)" opacity="0.85"/>
  <rect x="232" y="396" width="40" height="84" rx="5" fill="url(#barGrad)" opacity="0.85"/>
  <rect x="304" y="408" width="40" height="72" rx="5" fill="url(#barGrad)" opacity="0.85"/>
  <rect x="376" y="366" width="40" height="114" rx="5" fill="url(#barGrad)" opacity="0.85"/>
  <rect x="448" y="378" width="40" height="102" rx="5" fill="url(#barGrad)" opacity="0.85"/>
  <rect x="520" y="330" width="40" height="150" rx="5" fill="url(#barGrad)" opacity="0.85"/>
  <rect x="592" y="342" width="40" height="138" rx="5" fill="url(#barGrad)" opacity="0.85"/>
  <rect x="664" y="292" width="40" height="188" rx="5" fill="url(#barGrad)"/>

  <!-- 라인(면적) 차트 -->
  <path d="M180 402 L252 386 L324 390 L396 352 L468 356 L540 318 L612 322 L684 282 L684 480 L180 480 Z" fill="url(#areaGrad)"/>
  <path d="M180 402 L252 386 L324 390 L396 352 L468 356 L540 318 L612 322 L684 282" fill="none" stroke="#22d3ee" stroke-width="3" stroke-linecap="round"/>
  <circle cx="684" cy="282" r="6" fill="#22d3ee"/>
  <circle cx="684" cy="282" r="11" fill="#22d3ee" opacity="0.25"/>

  <text x="180" y="508" text-anchor="middle" fill="#475569" font-size="11">6/22</text>
  <text x="324" y="508" text-anchor="middle" fill="#475569" font-size="11">7/6</text>
  <text x="468" y="508" text-anchor="middle" fill="#475569" font-size="11">7/20</text>
  <text x="612" y="508" text-anchor="middle" fill="#475569" font-size="11">8/3</text>

  <circle cx="150" cy="536" r="5" fill="#3b82f6"/>
  <text x="164" y="541" fill="#64748b" font-size="12">매출</text>
  <circle cx="220" cy="536" r="5" fill="#22d3ee"/>
  <text x="234" y="541" fill="#64748b" font-size="12">자동 처리 건수</text>

  <!-- 우측: 보고서 구성 -->
  <rect x="796" y="192" width="304" height="360" rx="12" fill="#16213b" stroke="#233252"/>
  <rect x="796" y="192" width="304" height="4" rx="2" fill="#3b82f6"/>
  <text x="820" y="226" fill="#e2e8f0" font-size="15" font-weight="700">보고서 자동 구성</text>

  <g>
    <rect x="820" y="248" width="256 " height="52" rx="9" fill="#0d1526"/>
    <text x="838" y="270" fill="#e2e8f0" font-size="13" font-weight="600">1. 주간 실적 요약</text>
    <text x="838" y="290" fill="#22c55e" font-size="11">✓ ERP·엑셀 데이터 자동 집계</text>
  </g>
  <g>
    <rect x="820" y="310" width="256" height="52" rx="9" fill="#0d1526"/>
    <text x="838" y="332" fill="#e2e8f0" font-size="13" font-weight="600">2. 채널별 매출 분석</text>
    <text x="838" y="352" fill="#22c55e" font-size="11">✓ 차트 자동 생성</text>
  </g>
  <g>
    <rect x="820" y="372" width="256" height="52" rx="9" fill="#0d1526"/>
    <text x="838" y="394" fill="#e2e8f0" font-size="13" font-weight="600">3. 이슈 및 특이사항</text>
    <text x="838" y="414" fill="#22c55e" font-size="11">✓ AI가 데이터에서 자동 추출</text>
  </g>
  <g>
    <rect x="820" y="434" width="256" height="52" rx="9" fill="#0d1526"/>
    <text x="838" y="456" fill="#e2e8f0" font-size="13" font-weight="600">4. 다음 주 액션 제안</text>
    <text x="838" y="476" fill="#22c55e" font-size="11">✓ 초안 생성 후 담당자 검토</text>
  </g>
  <text x="820" y="524" fill="#64748b" font-size="12">보고서 작성 시간</text>
  <text x="820" y="546" fill="#22d3ee" font-size="16" font-weight="700">4시간 → 12분</text>

  <!-- 하단 KPI -->
  <g>
    <rect x="100" y="576" width="320" height="116" rx="12" fill="#16213b" stroke="#233252"/>
    <text x="124" y="608" fill="#64748b" font-size="13">이번 주 자동 생성 보고서</text>
    <text x="124" y="648" fill="#e2e8f0" font-size="28" font-weight="700">12건</text>
    <text x="124" y="674" fill="#64748b" font-size="12">주간·월간·부서별 리포트 포함</text>
  </g>
  <g>
    <rect x="436" y="576" width="320" height="116" rx="12" fill="#16213b" stroke="#233252"/>
    <text x="460" y="608" fill="#64748b" font-size="13">데이터 연동 소스</text>
    <text x="460" y="648" fill="#e2e8f0" font-size="28" font-weight="700">7개</text>
    <text x="460" y="674" fill="#64748b" font-size="12">ERP · 오픈마켓 · 광고 · 회계 시스템</text>
  </g>
  <g>
    <rect x="772" y="576" width="328" height="116" rx="12" fill="#16213b" stroke="#233252"/>
    <text x="796" y="608" fill="#64748b" font-size="13">월간 절감 시간</text>
    <text x="796" y="648" fill="#22d3ee" font-size="28" font-weight="700">64시간</text>
    <text x="796" y="674" fill="#64748b" font-size="12">보고서 관련 업무 기준</text>
  </g>
</svg>
